<?xml version="1.0" standalone="no"?><svg xmlns="http://www.w3.org/2000/svg" viewBox="0 0 1440 320"><path fill="#F9ECD4" fill-opacity="1" d="M0,160L34.3,160C68.6,160,137,160,206,176C274.3,192,343,224,411,202.7C480,181,549,107,617,101.3C685.7,96,754,160,823,154.7C891.4,149,960,75,1029,58.7C1097.1,43,1166,85,1234,101.3C1302.9,117,1371,107,1406,101.3L1440,96L1440,0L1405.7,0C1371.4,0,1303,0,1234,0C1165.7,0,1097,0,1029,0C960,0,891,0,823,0C754.3,0,686,0,617,0C548.6,0,480,0,411,0C342.9,0,274,0,206,0C137.1,0,69,0,34,0L0,0Z"></path></svg>